<svg width="15" height="15" viewBox="0 0 15 15" fill="none" xmlns="http://www.w3.org/2000/svg">
    <path d="M14.5879 12.5996L11.1467 9.15811C10.634 9.95555 9.95538 10.6338 9.15794 11.1465L12.5995 14.588C13.1489 15.1373 14.0397 15.1373 14.5879 14.588C15.1374 14.0397 15.1374 13.1489 14.5879 12.5996Z" fill="black" />
    <path d="M11.25 5.62499C11.25 2.51867 8.73145 0 5.62504 0C2.51869 0 0 2.51867 0 5.62499C0 8.73131 2.51869 11.2499 5.62504 11.2499C8.73145 11.2499 11.25 8.73131 11.25 5.62499ZM5.62504 9.84357C3.29867 9.84357 1.4063 7.95138 1.4063 5.62502C1.4063 3.29867 3.29867 1.40632 5.62504 1.40632C7.95135 1.40632 9.84387 3.29867 9.84387 5.62502C9.84387 7.95138 7.95135 9.84357 5.62504 9.84357Z" fill="black"/>
    <path d="M2.34381 5.62499H3.2812C3.2812 4.33269 4.33272 3.28126 5.62501 3.28126V2.34379C3.81599 2.34379 2.34381 3.81596 2.34381 5.62499Z" fill="black" />
</svg>
